<svg width="272" height="99" viewBox="0 0 272 99" fill="none" xmlns="http://www.w3.org/2000/svg">
<path d="M71.9551 37.9922C71.9551 40.6484 71.2812 43.0117 69.9336 45.082C68.5859 47.1328 66.6426 48.7344 64.1035 49.8867C61.5645 51.0195 58.5859 51.5859 55.168 51.5859C52.3164 51.5859 49.9238 51.3906 47.9902 51C46.0566 50.5898 44.0449 49.8867 41.9551 48.8906V38.5781C44.1621 39.7109 46.457 40.5996 48.8398 41.2441C51.2227 41.8691 53.4102 42.1816 55.4023 42.1816C57.1211 42.1816 58.3809 41.8887 59.1816 41.3027C59.9824 40.6973 60.3828 39.9258 60.3828 38.9883C60.3828 38.4023 60.2168 37.8945 59.8848 37.4648C59.5723 37.0156 59.0547 36.5664 58.332 36.1172C57.6289 35.668 55.7344 34.75 52.6484 33.3633C49.8555 32.0938 47.7559 30.8633 46.3496 29.6719C44.9629 28.4805 43.9277 27.1133 43.2441 25.5703C42.5801 24.0273 42.248 22.2012 42.248 20.0918C42.248 16.1465 43.6836 13.0703 46.5547 10.8633C49.4258 8.65625 53.3711 7.55273 58.3906 7.55273C62.8242 7.55273 67.3457 8.57812 71.9551 10.6289L68.4102 19.5645C64.4062 17.7285 60.9492 16.8105 58.0391 16.8105C56.5352 16.8105 55.4414 17.0742 54.7578 17.6016C54.0742 18.1289 53.7324 18.7832 53.7324 19.5645C53.7324 20.4043 54.1621 21.1562 55.0215 21.8203C55.9004 22.4844 58.2637 23.6953 62.1113 25.4531C65.8027 27.1133 68.3613 28.9004 69.7871 30.8145C71.2324 32.709 71.9551 35.1016 71.9551 37.9922ZM118.654 29.5254C118.654 36.7324 116.887 42.2109 113.352 45.9609C109.816 49.7109 104.641 51.5859 97.8242 51.5859C91.1055 51.5859 85.9492 49.7012 82.3555 45.9316C78.7812 42.1621 76.9941 36.6738 76.9941 29.4668C76.9941 22.3379 78.7715 16.8984 82.3262 13.1484C85.9004 9.37891 91.0859 7.49414 97.8828 7.49414C104.699 7.49414 109.865 9.35938 113.381 13.0898C116.896 16.8203 118.654 22.2988 118.654 29.5254ZM89.1816 29.5254C89.1816 37.8066 92.0625 41.9473 97.8242 41.9473C100.754 41.9473 102.922 40.9414 104.328 38.9297C105.754 36.918 106.467 33.7832 106.467 29.5254C106.467 25.248 105.744 22.0938 104.299 20.0625C102.873 18.0117 100.734 16.9863 97.8828 16.9863C92.082 16.9863 89.1816 21.166 89.1816 29.5254ZM167.17 51H151.994L136.35 20.8242H136.086C136.457 25.5703 136.643 29.1934 136.643 31.6934V51H126.389V8.16797H141.506L157.092 37.9336H157.268C156.994 33.6172 156.857 30.1504 156.857 27.5332V8.16797H167.17V51ZM176.428 51V8.16797H188.059V51H176.428ZM216.418 17.0449C213.664 17.0449 211.516 18.1777 209.973 20.4434C208.43 22.6895 207.658 25.7949 207.658 29.7598C207.658 38.002 210.793 42.123 217.062 42.123C218.957 42.123 220.793 41.8594 222.57 41.332C224.348 40.8047 226.135 40.1699 227.932 39.4277V49.2129C224.357 50.7949 220.314 51.5859 215.803 51.5859C209.338 51.5859 204.377 49.7109 200.92 45.9609C197.482 42.2109 195.764 36.791 195.764 29.7012C195.764 25.2676 196.594 21.3711 198.254 18.0117C199.934 14.6523 202.336 12.0742 205.461 10.2773C208.605 8.46094 212.297 7.55273 216.535 7.55273C221.164 7.55273 225.588 8.55859 229.807 10.5703L226.262 19.6816C224.68 18.9395 223.098 18.3145 221.516 17.8066C219.934 17.2988 218.234 17.0449 216.418 17.0449Z" fill="#3F83D8"/>
<rect y="59" width="272" height="40" rx="3" fill="#E12A3C"/>
<path d="M57.7422 88H53.1133V74.6523H48.9297V70.8672H61.9141V74.6523H57.7422V88ZM72.4492 88V80.7578C72.4492 78.9766 71.9219 78.0859 70.8672 78.0859C70.1172 78.0859 69.5625 78.4023 69.2031 79.0352C68.8516 79.6602 68.6758 80.7031 68.6758 82.1641V88H64.0938V69.7656H68.6758V72.3555C68.6758 73.5273 68.6133 74.8633 68.4883 76.3633H68.6992C69.1367 75.6758 69.6562 75.1914 70.2578 74.9102C70.8594 74.6289 71.5586 74.4883 72.3555 74.4883C73.8398 74.4883 74.9922 74.918 75.8125 75.7773C76.6406 76.6289 77.0547 77.8242 77.0547 79.3633V88H72.4492ZM86.582 88.2344C84.3711 88.2344 82.6523 87.6484 81.4258 86.4766C80.207 85.2969 79.5977 83.6211 79.5977 81.4492C79.5977 79.207 80.1641 77.4883 81.2969 76.293C82.4297 75.0898 84.0469 74.4883 86.1484 74.4883C88.1484 74.4883 89.6914 75.0117 90.7773 76.0586C91.8711 77.0977 92.418 78.5977 92.418 80.5586V82.5977H84.2266C84.2578 83.3398 84.5273 83.9219 85.0352 84.3438C85.5508 84.7656 86.25 84.9766 87.1328 84.9766C87.9375 84.9766 88.6758 84.9023 89.3477 84.7539C90.0273 84.5977 90.7617 84.3359 91.5508 83.9688V87.2617C90.832 87.6289 90.0898 87.8828 89.3242 88.0234C88.5586 88.1641 87.6445 88.2344 86.582 88.2344ZM86.3125 77.6055C85.7734 77.6055 85.3203 77.7773 84.9531 78.1211C84.5938 78.457 84.3828 78.9883 84.3203 79.7148H88.2578C88.2422 79.0742 88.0586 78.5625 87.707 78.1797C87.3633 77.7969 86.8984 77.6055 86.3125 77.6055ZM116.195 88H111.543V81.0156H106.164V88H101.512V70.8672H106.164V77.2188H111.543V70.8672H116.195V88ZM126.051 88.2344C123.84 88.2344 122.121 87.6484 120.895 86.4766C119.676 85.2969 119.066 83.6211 119.066 81.4492C119.066 79.207 119.633 77.4883 120.766 76.293C121.898 75.0898 123.516 74.4883 125.617 74.4883C127.617 74.4883 129.16 75.0117 130.246 76.0586C131.34 77.0977 131.887 78.5977 131.887 80.5586V82.5977H123.695C123.727 83.3398 123.996 83.9219 124.504 84.3438C125.02 84.7656 125.719 84.9766 126.602 84.9766C127.406 84.9766 128.145 84.9023 128.816 84.7539C129.496 84.5977 130.23 84.3359 131.02 83.9688V87.2617C130.301 87.6289 129.559 87.8828 128.793 88.0234C128.027 88.1641 127.113 88.2344 126.051 88.2344ZM125.781 77.6055C125.242 77.6055 124.789 77.7773 124.422 78.1211C124.062 78.457 123.852 78.9883 123.789 79.7148H127.727C127.711 79.0742 127.527 78.5625 127.176 78.1797C126.832 77.7969 126.367 77.6055 125.781 77.6055ZM138.602 88.2344C137.656 88.2344 136.828 87.9648 136.117 87.4258C135.414 86.8867 134.867 86.0938 134.477 85.0469C134.094 84 133.902 82.7773 133.902 81.3789C133.902 79.2227 134.336 77.5352 135.203 76.3164C136.07 75.0977 137.262 74.4883 138.777 74.4883C139.52 74.4883 140.168 74.6367 140.723 74.9336C141.285 75.2305 141.797 75.7305 142.258 76.4336H142.352C142.203 75.3945 142.129 74.3555 142.129 73.3164V69.7656H146.746V88H143.289L142.305 86.3242H142.129C141.34 87.5977 140.164 88.2344 138.602 88.2344ZM140.477 84.6133C141.211 84.6133 141.727 84.3828 142.023 83.9219C142.328 83.4609 142.492 82.75 142.516 81.7891V81.4258C142.516 80.2539 142.348 79.4219 142.012 78.9297C141.676 78.4297 141.148 78.1797 140.43 78.1797C139.828 78.1797 139.359 78.4648 139.023 79.0352C138.695 79.5977 138.531 80.4023 138.531 81.4492C138.531 82.4805 138.699 83.2656 139.035 83.8047C139.371 84.3438 139.852 84.6133 140.477 84.6133ZM162.449 74.7227V76.9375L160.633 77.6055C160.883 78.0586 161.008 78.5859 161.008 79.1875C161.008 80.6172 160.504 81.7266 159.496 82.5156C158.496 83.3047 157 83.6992 155.008 83.6992C154.516 83.6992 154.125 83.668 153.836 83.6055C153.727 83.8086 153.672 84 153.672 84.1797C153.672 84.4062 153.855 84.582 154.223 84.707C154.59 84.8242 155.07 84.8828 155.664 84.8828H157.867C160.844 84.8828 162.332 86.1367 162.332 88.6445C162.332 90.2617 161.641 91.5195 160.258 92.418C158.883 93.3164 156.949 93.7656 154.457 93.7656C152.574 93.7656 151.121 93.4492 150.098 92.8164C149.082 92.1914 148.574 91.2891 148.574 90.1094C148.574 88.5234 149.559 87.5 151.527 87.0391C151.121 86.8672 150.766 86.5898 150.461 86.207C150.164 85.8242 150.016 85.4453 150.016 85.0703C150.016 84.6562 150.129 84.293 150.355 83.9805C150.582 83.6602 151.055 83.2812 151.773 82.8438C151.086 82.5391 150.543 82.0625 150.145 81.4141C149.754 80.7656 149.559 79.9766 149.559 79.0469C149.559 77.6016 150.051 76.4805 151.035 75.6836C152.02 74.8867 153.426 74.4883 155.254 74.4883C155.496 74.4883 155.914 74.5156 156.508 74.5703C157.102 74.625 157.539 74.6758 157.82 74.7227H162.449ZM152.441 89.6523C152.441 90.0273 152.645 90.3281 153.051 90.5547C153.457 90.7891 154 90.9062 154.68 90.9062C155.789 90.9062 156.676 90.7656 157.34 90.4844C158.012 90.2109 158.348 89.8555 158.348 89.418C158.348 89.0664 158.145 88.8164 157.738 88.668C157.332 88.5273 156.75 88.457 155.992 88.457H154.199C153.707 88.457 153.289 88.5703 152.945 88.7969C152.609 89.0312 152.441 89.3164 152.441 89.6523ZM153.883 79.0703C153.883 80.4297 154.355 81.1094 155.301 81.1094C155.738 81.1094 156.074 80.9414 156.309 80.6055C156.551 80.2695 156.672 79.7656 156.672 79.0938C156.672 77.7188 156.215 77.0312 155.301 77.0312C154.355 77.0312 153.883 77.7109 153.883 79.0703ZM170.887 88.2344C168.676 88.2344 166.957 87.6484 165.73 86.4766C164.512 85.2969 163.902 83.6211 163.902 81.4492C163.902 79.207 164.469 77.4883 165.602 76.293C166.734 75.0898 168.352 74.4883 170.453 74.4883C172.453 74.4883 173.996 75.0117 175.082 76.0586C176.176 77.0977 176.723 78.5977 176.723 80.5586V82.5977H168.531C168.562 83.3398 168.832 83.9219 169.34 84.3438C169.855 84.7656 170.555 84.9766 171.438 84.9766C172.242 84.9766 172.98 84.9023 173.652 84.7539C174.332 84.5977 175.066 84.3359 175.855 83.9688V87.2617C175.137 87.6289 174.395 87.8828 173.629 88.0234C172.863 88.1641 171.949 88.2344 170.887 88.2344ZM170.617 77.6055C170.078 77.6055 169.625 77.7773 169.258 78.1211C168.898 78.457 168.688 78.9883 168.625 79.7148H172.562C172.547 79.0742 172.363 78.5625 172.012 78.1797C171.668 77.7969 171.203 77.6055 170.617 77.6055ZM187.668 88V80.7578C187.668 78.9766 187.141 78.0859 186.086 78.0859C185.336 78.0859 184.781 78.4023 184.422 79.0352C184.07 79.6602 183.895 80.7031 183.895 82.1641V88H179.312V69.7656H183.895V72.3555C183.895 73.5273 183.832 74.8633 183.707 76.3633H183.918C184.355 75.6758 184.875 75.1914 185.477 74.9102C186.078 74.6289 186.777 74.4883 187.574 74.4883C189.059 74.4883 190.211 74.918 191.031 75.7773C191.859 76.6289 192.273 77.8242 192.273 79.3633V88H187.668ZM208.07 81.332C208.07 83.5039 207.484 85.1992 206.312 86.418C205.148 87.6289 203.516 88.2344 201.414 88.2344C199.398 88.2344 197.793 87.6133 196.598 86.3711C195.41 85.1289 194.816 83.4492 194.816 81.332C194.816 79.168 195.398 77.4883 196.562 76.293C197.734 75.0898 199.375 74.4883 201.484 74.4883C202.789 74.4883 203.941 74.7656 204.941 75.3203C205.941 75.875 206.711 76.6719 207.25 77.7109C207.797 78.7422 208.07 79.9492 208.07 81.332ZM199.469 81.332C199.469 82.4727 199.621 83.3438 199.926 83.9453C200.23 84.5391 200.742 84.8359 201.461 84.8359C202.172 84.8359 202.672 84.5391 202.961 83.9453C203.258 83.3438 203.406 82.4727 203.406 81.332C203.406 80.1992 203.258 79.3438 202.961 78.7656C202.664 78.1875 202.156 77.8984 201.438 77.8984C200.734 77.8984 200.23 78.1875 199.926 78.7656C199.621 79.3359 199.469 80.1914 199.469 81.332ZM223.223 74.7227V76.9375L221.406 77.6055C221.656 78.0586 221.781 78.5859 221.781 79.1875C221.781 80.6172 221.277 81.7266 220.27 82.5156C219.27 83.3047 217.773 83.6992 215.781 83.6992C215.289 83.6992 214.898 83.668 214.609 83.6055C214.5 83.8086 214.445 84 214.445 84.1797C214.445 84.4062 214.629 84.582 214.996 84.707C215.363 84.8242 215.844 84.8828 216.438 84.8828H218.641C221.617 84.8828 223.105 86.1367 223.105 88.6445C223.105 90.2617 222.414 91.5195 221.031 92.418C219.656 93.3164 217.723 93.7656 215.23 93.7656C213.348 93.7656 211.895 93.4492 210.871 92.8164C209.855 92.1914 209.348 91.2891 209.348 90.1094C209.348 88.5234 210.332 87.5 212.301 87.0391C211.895 86.8672 211.539 86.5898 211.234 86.207C210.938 85.8242 210.789 85.4453 210.789 85.0703C210.789 84.6562 210.902 84.293 211.129 83.9805C211.355 83.6602 211.828 83.2812 212.547 82.8438C211.859 82.5391 211.316 82.0625 210.918 81.4141C210.527 80.7656 210.332 79.9766 210.332 79.0469C210.332 77.6016 210.824 76.4805 211.809 75.6836C212.793 74.8867 214.199 74.4883 216.027 74.4883C216.27 74.4883 216.688 74.5156 217.281 74.5703C217.875 74.625 218.312 74.6758 218.594 74.7227H223.223ZM213.215 89.6523C213.215 90.0273 213.418 90.3281 213.824 90.5547C214.23 90.7891 214.773 90.9062 215.453 90.9062C216.562 90.9062 217.449 90.7656 218.113 90.4844C218.785 90.2109 219.121 89.8555 219.121 89.418C219.121 89.0664 218.918 88.8164 218.512 88.668C218.105 88.5273 217.523 88.457 216.766 88.457H214.973C214.48 88.457 214.062 88.5703 213.719 88.7969C213.383 89.0312 213.215 89.3164 213.215 89.6523ZM214.656 79.0703C214.656 80.4297 215.129 81.1094 216.074 81.1094C216.512 81.1094 216.848 80.9414 217.082 80.6055C217.324 80.2695 217.445 79.7656 217.445 79.0938C217.445 77.7188 216.988 77.0312 216.074 77.0312C215.129 77.0312 214.656 77.7109 214.656 79.0703Z" fill="white"/>
</svg>
